{"title":"Tower Heist 2011 BRRip.XviD.Ac3.Feel-Free","uid":7020802,"size":1501764240,"categoryP":"video","categoryS":"movies","magnet":"?xt=urn:btih:313e7a8d59583f24affdfccdb456a3921893a09d&amp;dn=Tower+Heist+2011+BRRip.XviD.Ac3.Feel-Free&amp;tr=udp%3A%2F%2Ftracker.openbittorrent.com%3A80&amp;tr=udp%3A%2F%2Fopen.demonii.com%3A1337&amp;tr=udp%3A%2F%2Ftracker.coppersurfer.tk%3A6969&amp;tr=udp%3A%2F%2Fexodus.desync.com%3A6969","seeders":0,"leechers":0,"uploader":null,"files":14,"time":1328830448,"description":"Genre: Action | Comedy | Crime\nLanguage:English\nIMDb:http://www.imdb.com/title/tt0471042/\nSource:720p BluRay X264-AMIABLE Thanks!\nSubtitles:English\nEncoder:Tony\n\n\nFormat : AVI\nFormat/Info : Audio Video Interleave\nFile size : 1.39 GiB\nDuration : 1h 44mn\nOverall bit rate : 1 901 Kbps\n\n\nVideo\nID : 0\nFormat : MPEG-4 Visual\nFormat profile : Advanced Simple@L5\nFormat settings, BVOP : 1\nFormat settings, QPel : No\nFormat settings, GMC : No warppoints\nFormat settings, Matrix : Default (H.263)\nCodec ID : XVID\nCodec ID/Hint : XviD\nDuration : 1h 44mn\nBit rate : 1 444 Kbps\nWidth : 624 pixels\nHeight : 264 pixels\nDisplay aspect ratio : 2.35:1\nFrame rate : 23.976 fps\nColor space : YUV\nChroma subsampling : 4:2:0\nBit depth : 8 bits\nScan type : Progressive\nCompression mode : Lossy\nBits/(Pixel*Frame) : 0.366\nStream size : 1.05 GiB (76%)\nWriting library : XviD 1.2.1 (UTC 2008-12-04) &lt;a href=&quot;\nhttp://img59.imageshack.us/img59/2838/vlcsnap2012020923h39m58.png&quot; rel=&quot;nofollow&quot; target=&quot;_NEW&quot;&gt;\nhttp://img59.imageshack.us/img59/2838/vlcsnap2012020923h39m58.png&lt;/a&gt; &lt;a href=&quot;\nhttp://img818.imageshack.us/img818/8179/vlcsnap2012020923h33m08.png&quot; rel=&quot;nofollow&quot; target=&quot;_NEW&quot;&gt;\nhttp://img818.imageshack.us/img818/8179/vlcsnap2012020923h33m08.png&lt;/a&gt;\nAudio\nID : 1\nFormat : AC-3\nFormat/Info : Audio Coding 3\nMode extension : CM (complete main)\nCodec ID : 2000\nDuration : 1h 44mn\nBit rate mode : Constant\nBit rate : 448 Kbps\nChannel(s) : 6 channels\nChannel positions : Front: L C R, Side: L R, LFE\nSampling rate : 48.0 KHz\nBit depth : 16 bits\nCompression mode : Lossy\nStream size : 335 MiB (24%)\nAlignment : Aligned on interleaves\nInterleave, duration : 42 ms (1.00 video frame)\nInterleave, preload duration : 512 ms\n\n\n\nPlot:\nWhen a group of hard working guys find out they've fallen victim to a wealthy business man's Ponzi scheme, they conspire to rob his high-rise residence\n","torrent":{"xt":"urn:btih:313e7a8d59583f24affdfccdb456a3921893a09d","amp;dn":"Tower+Heist+2011+BRRip.XviD.Ac3.Feel-Free","amp;tr":["udp%3A%2F%2Ftracker.openbittorrent.com%3A80","udp%3A%2F%2Fopen.demonii.com%3A1337","udp%3A%2F%2Ftracker.coppersurfer.tk%3A6969","udp%3A%2F%2Fexodus.desync.com%3A6969"],"infoHash":"313e7a8d59583f24affdfccdb456a3921893a09d","infoHashBuffer":{"type":"Buffer","data":[49,62,122,141,89,88,63,36,175,253,252,205,180,86,163,146,24,147,160,157]},"announce":[],"urlList":[]}}